<mxfile host="Electron" agent="Mozilla/5.0 (Windows NT 10.0; Win64; x64) AppleWebKit/537.36 (KHTML, like Gecko) draw.io/26.2.2 Chrome/134.0.6998.178 Electron/35.1.2 Safari/537.36" version="26.2.2">
  <diagram name="Page-1" id="dQ3_nkjfHzIPM96NH0KZ">
    <mxGraphModel dx="1428" dy="849" grid="1" gridSize="10" guides="1" tooltips="1" connect="1" arrows="1" fold="1" page="1" pageScale="1" pageWidth="850" pageHeight="1100" math="0" shadow="0">
      <root>
        <mxCell id="0" />
        <mxCell id="1" parent="0" />
        <mxCell id="kNImfEx8NlwNqKggTJPn-5" value="" style="rounded=0;whiteSpace=wrap;html=1;strokeColor=none;" parent="1" vertex="1">
          <mxGeometry x="380" y="40" width="260" height="130" as="geometry" />
        </mxCell>
        <mxCell id="Pcxero0CiSbf2tbfJ2MJ-60" value="HeaderPane" style="swimlane;whiteSpace=wrap;html=1;startSize=23;fillColor=#d5e8d4;strokeColor=#82b366;" parent="1" vertex="1">
          <mxGeometry x="40" y="30" width="320" height="140" as="geometry" />
        </mxCell>
        <mxCell id="Pcxero0CiSbf2tbfJ2MJ-82" value="" style="rounded=0;whiteSpace=wrap;html=1;strokeColor=none;" parent="Pcxero0CiSbf2tbfJ2MJ-60" vertex="1">
          <mxGeometry y="50" width="320" height="90" as="geometry" />
        </mxCell>
        <mxCell id="Pcxero0CiSbf2tbfJ2MJ-61" value="" style="strokeWidth=1;html=1;shadow=0;dashed=0;shape=mxgraph.android.rrect;rSize=0;fillColor=#dae8fc;strokeColor=#6c8ebf;" parent="Pcxero0CiSbf2tbfJ2MJ-60" vertex="1">
          <mxGeometry y="20" width="320" height="30" as="geometry" />
        </mxCell>
        <mxCell id="Pcxero0CiSbf2tbfJ2MJ-62" value="Dockable1" style="strokeWidth=1;html=1;shadow=0;dashed=0;shape=mxgraph.android.anchor;fontStyle=1;fontColor=#666666;" parent="Pcxero0CiSbf2tbfJ2MJ-61" vertex="1">
          <mxGeometry width="80" height="30" as="geometry" />
        </mxCell>
        <mxCell id="Pcxero0CiSbf2tbfJ2MJ-63" value="Dockable2" style="strokeWidth=1;html=1;shadow=0;dashed=0;shape=mxgraph.android.rrect;rSize=0;fontStyle=1;fillColor=#44c5f5;strokeColor=none;fontColor=#ffffff;" parent="Pcxero0CiSbf2tbfJ2MJ-61" vertex="1">
          <mxGeometry x="80" width="80" height="30" as="geometry" />
        </mxCell>
        <mxCell id="Pcxero0CiSbf2tbfJ2MJ-64" value="" style="strokeWidth=1;html=1;shadow=0;dashed=0;shape=mxgraph.android.rrect;rSize=0;fillColor=#33b5e5;strokeColor=none;" parent="Pcxero0CiSbf2tbfJ2MJ-63" vertex="1">
          <mxGeometry y="27" width="80" height="3" as="geometry" />
        </mxCell>
        <mxCell id="Pcxero0CiSbf2tbfJ2MJ-65" value="Dockable3" style="strokeWidth=1;html=1;shadow=0;dashed=0;shape=mxgraph.android.anchor;fontStyle=1;fontColor=#666666;" parent="Pcxero0CiSbf2tbfJ2MJ-61" vertex="1">
          <mxGeometry x="160" width="80" height="30" as="geometry" />
        </mxCell>
        <mxCell id="Pcxero0CiSbf2tbfJ2MJ-66" value="Dockable3" style="strokeWidth=1;html=1;shadow=0;dashed=0;shape=mxgraph.android.anchor;fontStyle=1;fontColor=#666666;" parent="Pcxero0CiSbf2tbfJ2MJ-61" vertex="1">
          <mxGeometry x="240" width="80" height="30" as="geometry" />
        </mxCell>
        <mxCell id="Pcxero0CiSbf2tbfJ2MJ-67" value="" style="shape=line;strokeColor=#666666;direction=south;" parent="Pcxero0CiSbf2tbfJ2MJ-61" vertex="1">
          <mxGeometry x="227.45945945945948" y="5" width="17.2972972972973" height="20" as="geometry" />
        </mxCell>
        <mxCell id="Pcxero0CiSbf2tbfJ2MJ-68" value="Selected Dockable&#39;s JavaFX Node" style="rounded=0;whiteSpace=wrap;html=1;direction=west;horizontal=1;fillColor=#dae8fc;strokeColor=#6c8ebf;" parent="Pcxero0CiSbf2tbfJ2MJ-60" vertex="1">
          <mxGeometry x="20" y="70" width="280" height="50" as="geometry" />
        </mxCell>
        <mxCell id="Pcxero0CiSbf2tbfJ2MJ-69" style="edgeStyle=orthogonalEdgeStyle;rounded=0;orthogonalLoop=1;jettySize=auto;html=1;entryX=0.643;entryY=0.98;entryDx=0;entryDy=0;entryPerimeter=0;fillColor=#dae8fc;strokeColor=#6c8ebf;" parent="Pcxero0CiSbf2tbfJ2MJ-60" source="Pcxero0CiSbf2tbfJ2MJ-63" target="Pcxero0CiSbf2tbfJ2MJ-68" edge="1">
          <mxGeometry relative="1" as="geometry" />
        </mxCell>
        <mxCell id="kNImfEx8NlwNqKggTJPn-4" value="HeaderPane (null side)" style="swimlane;whiteSpace=wrap;html=1;startSize=23;fillColor=#d5e8d4;strokeColor=#82b366;" parent="1" vertex="1">
          <mxGeometry x="380" y="30" width="260" height="140" as="geometry" />
        </mxCell>
        <mxCell id="kNImfEx8NlwNqKggTJPn-13" value="Selected Dockable&#39;s JavaFX Node" style="rounded=0;whiteSpace=wrap;html=1;direction=west;horizontal=1;fillColor=#dae8fc;strokeColor=#6c8ebf;" parent="kNImfEx8NlwNqKggTJPn-4" vertex="1">
          <mxGeometry x="20" y="70" width="220" height="50" as="geometry" />
        </mxCell>
      </root>
    </mxGraphModel>
  </diagram>
</mxfile>
